<svg width="24" height="22" viewBox="0 0 24 22" fill="none" xmlns="http://www.w3.org/2000/svg">
<g id="type=dark icon">
<g id="Group">
<path id="Vector" d="M3.48999 16.495H11.49" stroke="#333333" stroke-linecap="round" stroke-linejoin="round"/>
<path id="Vector_2" d="M5.48999 16.495V18.495C5.48999 19.045 5.03999 19.495 4.48999 19.495H2.48999C1.93999 19.495 1.48999 19.045 1.48999 18.495V11.675C1.48999 10.895 1.66999 10.135 2.01999 9.435L4.38998 4.705C5.06998 3.345 6.44999 2.495 7.96999 2.495H15.03C16.55 2.495 17.93 3.355 18.61 4.705L20.98 9.435C21.06 9.605 21.14 9.775 21.2 9.945" stroke="#333333" stroke-linecap="round" stroke-linejoin="round"/>
<path id="Vector_3" d="M22.49 8.505H19.99C19.99 8.505 16.49 9.49501 11.49 9.49501C6.48999 9.49501 2.98999 8.505 2.98999 8.505H0.48999" stroke="#333333" stroke-linecap="round" stroke-linejoin="round"/>
<path id="Vector_4" d="M4.48999 11.495C4.48999 12.045 4.93999 12.495 5.48999 12.495H7.48999" stroke="#333333" stroke-linecap="round" stroke-linejoin="round"/>
<path id="Vector_5" d="M9.48999 14.495H11.49" stroke="#333333" stroke-linecap="round" stroke-linejoin="round"/>
<path id="Vector_6" d="M8.48999 2.495L9.20999 1.045C9.37999 0.705003 9.72999 0.495003 10.1 0.495003H12.86C13.24 0.495003 13.59 0.705003 13.75 1.045L14.47 2.495" stroke="#333333" stroke-linecap="round" stroke-linejoin="round"/>
</g>
<g id="Group_2">
<path id="Vector_7" d="M18.49 21.495C21.2514 21.495 23.49 19.2564 23.49 16.495C23.49 13.7336 21.2514 11.495 18.49 11.495C15.7286 11.495 13.49 13.7336 13.49 16.495C13.49 19.2564 15.7286 21.495 18.49 21.495Z" stroke="#333333" stroke-linecap="round" stroke-linejoin="round"/>
<g id="Group_3">
<path id="Vector_8" d="M20.61 18.615L16.37 14.375" stroke="#333333" stroke-linecap="round" stroke-linejoin="round"/>
<path id="Vector_9" d="M16.37 18.615L20.61 14.375" stroke="#333333" stroke-linecap="round" stroke-linejoin="round"/>
</g>
</g>
</g>
</svg>
