<svg width="23" height="16" viewBox="0 0 23 16" fill="none" xmlns="http://www.w3.org/2000/svg">
<g id="type=dark icon">
<path id="Vector" d="M3.48999 13.506H2.48999C1.38999 13.506 0.48999 12.606 0.48999 11.506V2.50601C0.48999 1.40601 1.38999 0.506012 2.48999 0.506012H14.02C15.54 0.506012 16.92 1.36601 17.6 2.71601L19.49 6.50601L21.15 7.61601C21.98 8.17601 22.49 9.10601 22.49 10.116V12.506C22.49 13.056 22.04 13.506 21.49 13.506H20.49" stroke="#333333" stroke-linecap="round" stroke-linejoin="round"/>
<path id="Vector_2" d="M16.49 13.506H7.48999" stroke="#333333" stroke-linecap="round" stroke-linejoin="round"/>
<path id="Vector_3" d="M18.49 15.506C19.5946 15.506 20.49 14.6106 20.49 13.506C20.49 12.4014 19.5946 11.506 18.49 11.506C17.3854 11.506 16.49 12.4014 16.49 13.506C16.49 14.6106 17.3854 15.506 18.49 15.506Z" stroke="#333333" stroke-linecap="round" stroke-linejoin="round"/>
<path id="Vector_4" d="M5.48999 15.506C6.59456 15.506 7.48999 14.6106 7.48999 13.506C7.48999 12.4014 6.59456 11.506 5.48999 11.506C4.38542 11.506 3.48999 12.4014 3.48999 13.506C3.48999 14.6106 4.38542 15.506 5.48999 15.506Z" stroke="#333333" stroke-linecap="round" stroke-linejoin="round"/>
<path id="Vector_5" d="M19.49 6.50601H15.49C14.94 6.50601 14.49 6.05601 14.49 5.50601V2.50601" stroke="#333333" stroke-linecap="round" stroke-linejoin="round"/>
<path id="Vector_6" d="M3.48999 6.50601H11.49" stroke="#333333" stroke-linecap="round" stroke-linejoin="round"/>
</g>
</svg>
